<svg width="320" height="72" viewBox="0 0 320 72" fill="none" xmlns="http://www.w3.org/2000/svg">
<rect width="192" height="72" transform="translate(64)" fill="white"/>
<path d="M64.5645 43.5H77.2485V39.944H69.1005V23.48H64.5645V43.5Z" fill="black"/>
<path d="M85.5869 40.728C83.2909 40.728 82.0029 39.048 82.0029 36.248V36.024C82.0029 33.224 83.3469 31.6 85.5869 31.6C87.8549 31.6 89.1709 33.28 89.1709 36.08V36.276C89.1709 39.048 87.8549 40.728 85.5869 40.728ZM85.5589 43.808C89.9549 43.808 93.2869 40.868 93.2869 36.248V36.024C93.2869 31.46 89.9829 28.52 85.5869 28.52C81.1909 28.52 77.8589 31.516 77.8589 36.108V36.332C77.8589 40.896 81.1909 43.808 85.5589 43.808Z" fill="black"/>
<path d="M101.665 48.904C106.481 48.904 109.365 46.692 109.393 42.352V28.856H105.361V31.04C104.521 29.556 103.093 28.52 100.713 28.52C97.0729 28.52 94.2729 31.46 94.2729 35.66V35.856C94.2729 40.196 97.1009 42.856 100.657 42.856C102.813 42.856 104.549 41.568 105.361 40.14V42.352C105.361 44.648 104.129 45.936 101.665 45.936C99.593 45.936 98.669 45.096 98.417 43.808H94.3849C94.7769 46.832 96.933 48.904 101.665 48.904ZM101.861 39.804C99.845 39.804 98.417 38.292 98.417 35.856V35.632C98.417 33.224 99.677 31.6 101.945 31.6C104.157 31.6 105.473 33.112 105.473 35.604V35.8C105.473 38.292 103.989 39.804 101.861 39.804Z" fill="black"/>
<path d="M118.962 40.728C116.666 40.728 115.378 39.048 115.378 36.248V36.024C115.378 33.224 116.722 31.6 118.962 31.6C121.23 31.6 122.546 33.28 122.546 36.08V36.276C122.546 39.048 121.23 40.728 118.962 40.728ZM118.934 43.808C123.33 43.808 126.662 40.868 126.662 36.248V36.024C126.662 31.46 123.358 28.52 118.962 28.52C114.566 28.52 111.234 31.516 111.234 36.108V36.332C111.234 40.896 114.566 43.808 118.934 43.808Z" fill="black"/>
</svg>
