<svg width="817" height="72" viewBox="0 0 817 72" fill="none" xmlns="http://www.w3.org/2000/svg">
<rect width="817" height="72" fill="white"/>
<path d="M0.564453 43.5H13.2485V39.944H5.10045V23.48H0.564453V43.5Z" fill="black"/>
<path d="M21.587 40.728C19.291 40.728 18.003 39.048 18.003 36.248V36.024C18.003 33.224 19.347 31.6 21.587 31.6C23.855 31.6 25.171 33.28 25.171 36.08V36.276C25.171 39.048 23.855 40.728 21.587 40.728ZM21.559 43.808C25.955 43.808 29.287 40.868 29.287 36.248V36.024C29.287 31.46 25.983 28.52 21.587 28.52C17.191 28.52 13.859 31.516 13.859 36.108V36.332C13.859 40.896 17.191 43.808 21.559 43.808Z" fill="black"/>
<path d="M37.6649 48.904C42.4809 48.904 45.3649 46.692 45.3929 42.352V28.856H41.3609V31.04C40.5209 29.556 39.0929 28.52 36.7129 28.52C33.0729 28.52 30.2729 31.46 30.2729 35.66V35.856C30.2729 40.196 33.1009 42.856 36.6569 42.856C38.8129 42.856 40.5489 41.568 41.3609 40.14V42.352C41.3609 44.648 40.1289 45.936 37.6649 45.936C35.5929 45.936 34.6689 45.096 34.4169 43.808H30.3849C30.7769 46.832 32.9329 48.904 37.6649 48.904ZM37.8609 39.804C35.8449 39.804 34.4169 38.292 34.4169 35.856V35.632C34.4169 33.224 35.6769 31.6 37.9449 31.6C40.1569 31.6 41.4729 33.112 41.4729 35.604V35.8C41.4729 38.292 39.9889 39.804 37.8609 39.804Z" fill="black"/>
<path d="M54.9617 40.728C52.6657 40.728 51.3777 39.048 51.3777 36.248V36.024C51.3777 33.224 52.7217 31.6 54.9617 31.6C57.2297 31.6 58.5457 33.28 58.5457 36.08V36.276C58.5457 39.048 57.2297 40.728 54.9617 40.728ZM54.9337 43.808C59.3297 43.808 62.6617 40.868 62.6617 36.248V36.024C62.6617 31.46 59.3577 28.52 54.9617 28.52C50.5657 28.52 47.2337 31.516 47.2337 36.108V36.332C47.2337 40.896 50.5657 43.808 54.9337 43.808Z" fill="black"/>
</svg>
