<svg width="710" height="72" viewBox="0 0 710 72" fill="none" xmlns="http://www.w3.org/2000/svg">
<rect width="710" height="72" fill="white"/>
<path d="M0.564453 43.5H13.2485V39.944H5.10045V23.48H0.564453V43.5Z" fill="black"/>
<path d="M21.5869 40.728C19.2909 40.728 18.0029 39.048 18.0029 36.248V36.024C18.0029 33.224 19.3469 31.6 21.5869 31.6C23.8549 31.6 25.1709 33.28 25.1709 36.08V36.276C25.1709 39.048 23.8549 40.728 21.5869 40.728ZM21.5589 43.808C25.9549 43.808 29.2869 40.868 29.2869 36.248V36.024C29.2869 31.46 25.9829 28.52 21.5869 28.52C17.1909 28.52 13.8589 31.516 13.8589 36.108V36.332C13.8589 40.896 17.1909 43.808 21.5589 43.808Z" fill="black"/>
<path d="M37.665 48.904C42.481 48.904 45.3649 46.692 45.3929 42.352V28.856H41.361V31.04C40.521 29.556 39.0929 28.52 36.7129 28.52C33.0729 28.52 30.2729 31.46 30.2729 35.66V35.856C30.2729 40.196 33.1009 42.856 36.6569 42.856C38.8129 42.856 40.549 41.568 41.361 40.14V42.352C41.361 44.648 40.129 45.936 37.665 45.936C35.593 45.936 34.669 45.096 34.417 43.808H30.3849C30.7769 46.832 32.933 48.904 37.665 48.904ZM37.861 39.804C35.845 39.804 34.417 38.292 34.417 35.856V35.632C34.417 33.224 35.677 31.6 37.945 31.6C40.1569 31.6 41.4729 33.112 41.4729 35.604V35.8C41.4729 38.292 39.989 39.804 37.861 39.804Z" fill="black"/>
<path d="M54.9616 40.728C52.6656 40.728 51.3776 39.048 51.3776 36.248V36.024C51.3776 33.224 52.7216 31.6 54.9616 31.6C57.2296 31.6 58.5456 33.28 58.5456 36.08V36.276C58.5456 39.048 57.2296 40.728 54.9616 40.728ZM54.9336 43.808C59.3296 43.808 62.6616 40.868 62.6616 36.248V36.024C62.6616 31.46 59.3576 28.52 54.9616 28.52C50.5656 28.52 47.2336 31.516 47.2336 36.108V36.332C47.2336 40.896 50.5656 43.808 54.9336 43.808Z" fill="black"/>
</svg>
